# xmcd
#
# Track frame offsets:
# 150
# 69473
# 81511
# 90101
# 122837
# 137048
# 155857
# 186329
# 196136
#
# Disc length: 2786 seconds
#
#
# Revision: 1
# Processed by: cddbd v1.5.2PL0 Copyright (c) Steve Scherf et al.
# Submitted via: FreeRIP 2.945 
#
DISCID=7a0ae009
DTITLE=New Age Series - Sounds Of Nature (Vol II)
DYEAR=2002
DGENRE=New Age
TTITLE0=Subacuatic
TTITLE1=Brumas
TTITLE2=Ciclo
TTITLE3=Amazonas
TTITLE4=Sentimental
TTITLE5=Oriente
TTITLE6=Gotas De Lluvia
TTITLE7=Lunar
TTITLE8=Universal
EXTD=
EXTT0=
EXTT1=
EXTT2=
EXTT3=
EXTT4=
EXTT5=
EXTT6=
EXTT7=
EXTT8=
PLAYORDER=
